<svg width="626" height="305" viewBox="0 0 626 305" fill="none" xmlns="http://www.w3.org/2000/svg">
<g clip-path="url(#clip0_2686_1173)">
<path d="M315.5 236.343C291.296 236.343 279.61 216.829 244.92 158.897C238.994 149.005 242.487 143.114 244.265 141.044C247.813 136.903 254.059 135.838 260.178 138.331C272.772 143.465 294.818 157.519 309.406 166.824C311.695 168.286 313.756 169.6 315.5 170.699C317.236 169.604 319.288 168.295 321.569 166.841C336.169 157.532 358.227 143.469 370.834 138.331C376.949 135.838 383.196 136.903 386.748 141.044C388.526 143.114 392.014 149.005 386.093 158.897C351.402 216.829 339.717 236.343 315.513 236.343H315.5ZM253.679 143.769C251.884 143.769 250.338 144.34 249.392 145.443C247.677 147.441 248.172 151.173 250.714 155.419C285.915 214.205 295.933 229.578 315.5 229.578C335.067 229.578 345.084 214.201 380.286 155.419C382.828 151.173 383.322 147.441 381.608 145.443C380.011 143.579 376.7 143.237 373.372 144.593C361.336 149.499 338.707 163.925 325.188 172.541C323.951 173.327 322.785 174.075 321.696 174.768C327.646 179.104 332.697 184.643 332.697 192.541C332.697 201.106 324.821 208.344 315.496 208.344C306.171 208.344 298.294 201.106 298.294 192.541C298.294 184.639 303.341 179.099 309.287 174.768C308.189 174.071 307.011 173.319 305.765 172.524C292.259 163.913 269.651 149.495 257.623 144.593C256.268 144.04 254.912 143.769 253.679 143.769ZM315.496 178.702C308.202 183.536 305.056 187.741 305.056 192.541C305.056 197.341 309.938 201.584 315.5 201.584C321.062 201.584 325.944 197.358 325.944 192.541C325.944 187.724 322.794 183.54 315.496 178.702Z" fill="#E4002B"/>
<path d="M139.421 260.416H130.725V303.914H139.421V260.416Z" fill="black"/>
<path d="M92.225 295.061L68.7812 260.412H59L85.3409 300.204C86.8698 302.515 89.4545 303.901 92.225 303.901C94.9955 303.901 97.5802 302.511 99.109 300.204L125.45 260.412H115.669L92.225 295.061Z" fill="black"/>
<path d="M465.475 260.416H456.779V303.914H465.475V260.416Z" fill="black"/>
<path d="M185.067 291.951L160.069 260.416H150.287V303.914H158.983V271.288L183.981 303.91H193.762V260.416H185.067V291.951Z" fill="black"/>
<path d="M244.299 274.386C244.299 269.48 240.114 260.416 227.697 260.416H211.627H204.633V303.914H213.329V268.031H225.708C231.979 268.031 235.067 271.559 235.067 275.937C235.067 280.995 230.902 284.341 225.822 284.341H223.465C222.185 284.341 221.725 285.617 222.376 286.517L235.062 303.914H245.929L235.062 289.408C238.986 287.155 244.299 282.685 244.299 274.386Z" fill="black"/>
<path d="M292.415 265.626C290.274 263.628 287.698 262.077 284.687 260.978C281.68 259.879 278.36 259.33 274.728 259.33C271.096 259.33 267.76 259.879 264.757 260.978C261.758 262.077 259.186 263.628 257.045 265.626C254.899 267.625 253.24 270.021 252.053 272.805C250.866 275.594 250.275 278.662 250.275 282.021C250.275 285.381 250.866 288.491 252.053 291.305C253.24 294.119 254.899 296.545 257.045 298.573C259.186 300.601 261.758 302.182 264.757 303.31C267.755 304.438 271.079 305 274.728 305C278.377 305 281.675 304.434 284.687 303.31C287.698 302.182 290.27 300.605 292.415 298.573C294.557 296.545 296.221 294.123 297.407 291.305C298.594 288.491 299.185 285.393 299.185 282.021C299.185 278.649 298.594 275.594 297.407 272.805C296.221 270.017 294.557 267.625 292.415 265.626ZM289.311 288.22C288.509 290.058 287.406 291.63 286 292.928C284.598 294.225 282.934 295.226 281.008 295.928C279.082 296.629 276.992 296.98 274.728 296.98C272.464 296.98 270.374 296.629 268.452 295.928C266.526 295.226 264.858 294.225 263.447 292.928C262.033 291.63 260.93 290.058 260.136 288.22C259.342 286.382 258.945 284.316 258.945 282.021C258.945 279.727 259.342 277.669 260.136 275.852C260.93 274.031 262.033 272.493 263.447 271.229C264.862 269.97 266.531 269.007 268.452 268.343C270.374 267.68 272.469 267.346 274.728 267.346C276.987 267.346 279.082 267.68 281.008 268.343C282.93 269.007 284.594 269.97 286 271.229C287.406 272.489 288.509 274.031 289.311 275.852C290.114 277.673 290.515 279.731 290.515 282.021C290.515 284.312 290.114 286.382 289.311 288.22Z" fill="black"/>
<path d="M398.928 265.626C396.782 263.628 394.21 262.077 391.199 260.978C388.192 259.879 384.873 259.33 381.24 259.33C377.608 259.33 374.272 259.879 371.269 260.978C368.271 262.077 365.699 263.628 363.557 265.626C361.412 267.625 359.752 270.021 358.565 272.805C357.379 275.594 356.787 278.662 356.787 282.021C356.787 285.381 357.379 288.491 358.565 291.305C359.752 294.119 361.412 296.545 363.557 298.573C365.699 300.601 368.271 302.182 371.269 303.31C374.268 304.438 377.592 305 381.24 305C384.889 305 388.188 304.434 391.199 303.31C394.21 302.182 396.782 300.605 398.928 298.573C401.069 296.545 402.733 294.123 403.92 291.305C405.107 288.491 405.698 285.393 405.698 282.021C405.698 278.649 405.107 275.594 403.92 272.805C402.733 270.017 401.069 267.625 398.928 265.626ZM395.824 288.22C395.021 290.058 393.919 291.63 392.513 292.928C391.11 294.225 389.446 295.226 387.521 295.928C385.595 296.629 383.504 296.98 381.24 296.98C378.977 296.98 376.886 296.629 374.965 295.928C373.039 295.226 371.371 294.225 369.96 292.928C368.545 291.63 367.443 290.058 366.649 288.22C365.855 286.382 365.458 284.316 365.458 282.021C365.458 279.727 365.855 277.669 366.649 275.852C367.443 274.031 368.545 272.493 369.96 271.229C371.375 269.97 373.043 269.007 374.965 268.343C376.886 267.68 378.981 267.346 381.24 267.346C383.5 267.346 385.595 267.68 387.521 268.343C389.442 269.007 391.106 269.97 392.513 271.229C393.919 272.489 395.021 274.031 395.824 275.852C396.626 277.673 397.027 279.731 397.027 282.021C397.027 284.312 396.626 286.382 395.824 288.22Z" fill="black"/>
<path d="M342.66 279.558C344.366 277.483 345.921 275.265 345.921 270.917C345.921 266.319 342.66 260.412 333.496 260.412H314.402H306.796V303.91H315.492C319.056 303.91 330.484 303.91 335.683 303.91C344.979 303.91 349.181 296.98 349.181 290.637C349.181 284.295 344.624 280.745 342.66 279.558ZM337.326 272.1C337.326 275.07 335.776 276.727 332.811 276.727H315.487V268.026H332.761C335.789 268.026 337.326 269.742 337.326 272.1ZM334.594 296.304H315.492V284.337H333.867C337.761 284.337 340.485 286.488 340.485 290.384C340.485 294.28 338.281 296.3 334.594 296.3V296.304Z" fill="black"/>
<path d="M510.791 294.702C509.74 295.167 508.646 295.569 507.514 295.898C506.382 296.232 505.208 296.494 503.996 296.68C502.784 296.87 501.563 296.963 500.33 296.963C497.619 296.963 495.19 296.587 493.04 295.839C490.891 295.087 489.071 294.043 487.584 292.704C486.093 291.364 484.957 289.775 484.171 287.933C483.386 286.091 482.993 284.067 482.993 281.865C482.993 279.664 483.373 277.787 484.129 276.008C484.885 274.234 485.992 272.704 487.445 271.419C488.897 270.139 490.684 269.142 492.808 268.428C494.933 267.714 497.348 267.359 500.06 267.359C501.183 267.359 502.319 267.435 503.472 267.587C504.621 267.739 505.736 267.954 506.817 268.229C507.898 268.504 508.912 268.842 509.866 269.239C510.736 269.602 511.518 270.017 512.202 270.477L516.539 263.919C514.094 262.419 511.209 261.151 508.363 260.42C505.516 259.689 502.391 259.322 498.987 259.322C495.097 259.322 491.617 259.901 488.538 261.058C485.46 262.216 482.858 263.809 480.725 265.829C478.592 267.853 476.966 270.236 475.843 272.979C474.72 275.725 474.158 278.683 474.158 281.852C474.158 285.022 474.707 288.136 475.805 290.954C476.903 293.777 478.538 296.224 480.713 298.307C482.888 300.386 485.599 302.021 488.847 303.208C492.094 304.396 495.866 304.987 500.165 304.987C503.535 304.987 506.72 304.548 509.714 303.661C512.709 302.777 515.352 301.556 517.633 300.001L513.283 293.426C512.502 293.878 511.67 294.297 510.783 294.69L510.791 294.702Z" fill="black"/>
<path d="M553.679 277.027C542.639 277.027 534.172 276.634 534.172 272.763C534.172 268.893 541.288 267.621 546.968 267.621C552.319 267.621 558.24 268.939 563.291 270.879L567.637 264.316C564.377 262.242 555.854 259.326 546.356 259.326C536.858 259.326 525.125 263.285 525.125 273.152C525.125 283.019 535.646 284.793 552.818 284.793C559.934 284.793 562.928 286.817 562.928 290.029C562.928 293.24 559.047 296.988 548.877 296.988C541.14 296.988 533.175 293.523 528.495 291.508L523.702 298.776C527.638 301.125 538.572 304.996 549.599 304.996C564.377 304.996 572.004 298.48 572.004 289.509C572.004 282.528 565.467 277.023 553.679 277.023V277.027Z" fill="black"/>
<path d="M424.171 260.416H408.958V268.026H424.171V303.914H432.867V268.026H448.083V260.416H432.867H424.171Z" fill="black"/>
</g>
<path d="M68.632 99V82.2H71.704V89.184H79.24V82.2H82.312V99H79.24V91.68H71.704V99H68.632ZM89.9693 99.288C88.4813 99.288 87.3293 98.824 86.5133 97.896C85.7133 96.968 85.3133 95.608 85.3133 93.816V87.096H88.3613V93.528C88.3613 94.552 88.5693 95.336 88.9853 95.88C89.4013 96.424 90.0573 96.696 90.9533 96.696C91.8013 96.696 92.4973 96.392 93.0413 95.784C93.6013 95.176 93.8813 94.328 93.8813 93.24V87.096H96.9533V99H94.2413L94.0013 96.984C93.6333 97.688 93.0973 98.248 92.3933 98.664C91.7053 99.08 90.8973 99.288 89.9693 99.288ZM100.107 99V87.096H102.819L103.083 88.704C103.467 88.128 103.971 87.672 104.595 87.336C105.235 86.984 105.971 86.808 106.803 86.808C108.643 86.808 109.947 87.52 110.715 88.944C111.147 88.288 111.723 87.768 112.443 87.384C113.179 87 113.979 86.808 114.843 86.808C116.395 86.808 117.587 87.272 118.419 88.2C119.251 89.128 119.667 90.488 119.667 92.28V99H116.595V92.568C116.595 91.544 116.395 90.76 115.995 90.216C115.611 89.672 115.011 89.4 114.195 89.4C113.363 89.4 112.691 89.704 112.179 90.312C111.683 90.92 111.435 91.768 111.435 92.856V99H108.363V92.568C108.363 91.544 108.163 90.76 107.763 90.216C107.363 89.672 106.747 89.4 105.915 89.4C105.099 89.4 104.435 89.704 103.923 90.312C103.427 90.92 103.179 91.768 103.179 92.856V99H100.107ZM126.687 99.288C125.663 99.288 124.823 99.128 124.167 98.808C123.511 98.472 123.023 98.032 122.703 97.488C122.383 96.944 122.223 96.344 122.223 95.688C122.223 94.584 122.655 93.688 123.519 93C124.383 92.312 125.679 91.968 127.407 91.968H130.431V91.68C130.431 90.864 130.199 90.264 129.735 89.88C129.271 89.496 128.695 89.304 128.007 89.304C127.383 89.304 126.839 89.456 126.375 89.76C125.911 90.048 125.623 90.48 125.511 91.056H122.511C122.591 90.192 122.879 89.44 123.375 88.8C123.887 88.16 124.543 87.672 125.343 87.336C126.143 86.984 127.039 86.808 128.031 86.808C129.727 86.808 131.063 87.232 132.039 88.08C133.015 88.928 133.503 90.128 133.503 91.68V99H130.887L130.599 97.08C130.247 97.72 129.751 98.248 129.111 98.664C128.487 99.08 127.679 99.288 126.687 99.288ZM127.383 96.888C128.263 96.888 128.943 96.6 129.423 96.024C129.919 95.448 130.231 94.736 130.359 93.888H127.743C126.927 93.888 126.343 94.04 125.991 94.344C125.639 94.632 125.463 94.992 125.463 95.424C125.463 95.888 125.639 96.248 125.991 96.504C126.343 96.76 126.807 96.888 127.383 96.888ZM136.435 99V87.096H139.147L139.387 89.112C139.755 88.408 140.283 87.848 140.971 87.432C141.675 87.016 142.499 86.808 143.443 86.808C144.915 86.808 146.059 87.272 146.875 88.2C147.691 89.128 148.099 90.488 148.099 92.28V99H145.027V92.568C145.027 91.544 144.819 90.76 144.403 90.216C143.987 89.672 143.339 89.4 142.459 89.4C141.595 89.4 140.883 89.704 140.323 90.312C139.779 90.92 139.507 91.768 139.507 92.856V99H136.435Z" fill="#333333"/>
<path d="M477.544 99V84.672H472.648V82.2H485.536V84.672H480.616V99H477.544ZM491.367 99.288C490.167 99.288 489.103 99.032 488.175 98.52C487.247 98.008 486.519 97.288 485.991 96.36C485.463 95.432 485.199 94.36 485.199 93.144C485.199 91.912 485.455 90.816 485.967 89.856C486.495 88.896 487.215 88.152 488.127 87.624C489.055 87.08 490.143 86.808 491.391 86.808C492.559 86.808 493.591 87.064 494.487 87.576C495.383 88.088 496.079 88.792 496.575 89.688C497.087 90.568 497.343 91.552 497.343 92.64C497.343 92.816 497.335 93 497.319 93.192C497.319 93.384 497.311 93.584 497.295 93.792H488.247C488.311 94.72 488.631 95.448 489.207 95.976C489.799 96.504 490.511 96.768 491.343 96.768C491.967 96.768 492.487 96.632 492.903 96.36C493.335 96.072 493.655 95.704 493.863 95.256H496.983C496.759 96.008 496.383 96.696 495.855 97.32C495.343 97.928 494.703 98.408 493.935 98.76C493.183 99.112 492.327 99.288 491.367 99.288ZM491.391 89.304C490.639 89.304 489.975 89.52 489.399 89.952C488.823 90.368 488.455 91.008 488.295 91.872H494.223C494.175 91.088 493.887 90.464 493.359 90C492.831 89.536 492.175 89.304 491.391 89.304ZM505.759 99.288C504.543 99.288 503.471 99.024 502.543 98.496C501.615 97.968 500.879 97.232 500.335 96.288C499.807 95.344 499.543 94.264 499.543 93.048C499.543 91.832 499.807 90.752 500.335 89.808C500.879 88.864 501.615 88.128 502.543 87.6C503.471 87.072 504.543 86.808 505.759 86.808C507.279 86.808 508.559 87.208 509.599 88.008C510.639 88.792 511.303 89.88 511.591 91.272H508.351C508.191 90.696 507.871 90.248 507.391 89.928C506.927 89.592 506.375 89.424 505.735 89.424C504.887 89.424 504.167 89.744 503.575 90.384C502.983 91.024 502.687 91.912 502.687 93.048C502.687 94.184 502.983 95.072 503.575 95.712C504.167 96.352 504.887 96.672 505.735 96.672C506.375 96.672 506.927 96.512 507.391 96.192C507.871 95.872 508.191 95.416 508.351 94.824H511.591C511.303 96.168 510.639 97.248 509.599 98.064C508.559 98.88 507.279 99.288 505.759 99.288ZM514.318 99V81.72H517.39V88.92C517.79 88.264 518.326 87.752 518.998 87.384C519.686 87 520.47 86.808 521.35 86.808C522.822 86.808 523.958 87.272 524.758 88.2C525.574 89.128 525.982 90.488 525.982 92.28V99H522.934V92.568C522.934 91.544 522.726 90.76 522.31 90.216C521.91 89.672 521.27 89.4 520.39 89.4C519.526 89.4 518.806 89.704 518.23 90.312C517.67 90.92 517.39 91.768 517.39 92.856V99H514.318ZM528.919 99V87.096H531.631L531.871 89.112C532.239 88.408 532.767 87.848 533.455 87.432C534.159 87.016 534.983 86.808 535.927 86.808C537.399 86.808 538.543 87.272 539.359 88.2C540.175 89.128 540.583 90.488 540.583 92.28V99H537.511V92.568C537.511 91.544 537.303 90.76 536.887 90.216C536.471 89.672 535.823 89.4 534.943 89.4C534.079 89.4 533.367 89.704 532.807 90.312C532.263 90.92 531.991 91.768 531.991 92.856V99H528.919ZM549.233 99.288C548.081 99.288 547.041 99.024 546.113 98.496C545.201 97.968 544.473 97.24 543.929 96.312C543.401 95.368 543.137 94.28 543.137 93.048C543.137 91.816 543.409 90.736 543.953 89.808C544.497 88.864 545.225 88.128 546.137 87.6C547.065 87.072 548.105 86.808 549.257 86.808C550.393 86.808 551.417 87.072 552.329 87.6C553.257 88.128 553.985 88.864 554.513 89.808C555.057 90.736 555.329 91.816 555.329 93.048C555.329 94.28 555.057 95.368 554.513 96.312C553.985 97.24 553.257 97.968 552.329 98.496C551.401 99.024 550.369 99.288 549.233 99.288ZM549.233 96.624C550.033 96.624 550.729 96.328 551.321 95.736C551.913 95.128 552.209 94.232 552.209 93.048C552.209 91.864 551.913 90.976 551.321 90.384C550.729 89.776 550.041 89.472 549.257 89.472C548.441 89.472 547.737 89.776 547.145 90.384C546.569 90.976 546.281 91.864 546.281 93.048C546.281 94.232 546.569 95.128 547.145 95.736C547.737 96.328 548.433 96.624 549.233 96.624ZM558.076 99V81.72H561.148V99H558.076ZM569.999 99.288C568.847 99.288 567.807 99.024 566.879 98.496C565.967 97.968 565.239 97.24 564.695 96.312C564.167 95.368 563.903 94.28 563.903 93.048C563.903 91.816 564.175 90.736 564.719 89.808C565.263 88.864 565.991 88.128 566.903 87.6C567.831 87.072 568.871 86.808 570.023 86.808C571.159 86.808 572.183 87.072 573.095 87.6C574.023 88.128 574.751 88.864 575.279 89.808C575.823 90.736 576.095 91.816 576.095 93.048C576.095 94.28 575.823 95.368 575.279 96.312C574.751 97.24 574.023 97.968 573.095 98.496C572.167 99.024 571.135 99.288 569.999 99.288ZM569.999 96.624C570.799 96.624 571.495 96.328 572.087 95.736C572.679 95.128 572.975 94.232 572.975 93.048C572.975 91.864 572.679 90.976 572.087 90.384C571.495 89.776 570.807 89.472 570.023 89.472C569.207 89.472 568.503 89.776 567.911 90.384C567.335 90.976 567.047 91.864 567.047 93.048C567.047 94.232 567.335 95.128 567.911 95.736C568.503 96.328 569.199 96.624 569.999 96.624ZM583.131 95.448C582.555 95.448 582.019 95.384 581.523 95.256L580.635 96.144C580.907 96.288 581.275 96.408 581.739 96.504C582.203 96.6 582.955 96.696 583.995 96.792C585.579 96.936 586.731 97.312 587.451 97.92C588.171 98.528 588.531 99.368 588.531 100.44C588.531 101.144 588.339 101.808 587.955 102.432C587.571 103.072 586.979 103.584 586.179 103.968C585.379 104.368 584.355 104.568 583.107 104.568C581.411 104.568 580.043 104.248 579.003 103.608C577.963 102.984 577.443 102.04 577.443 100.776C577.443 99.704 577.963 98.776 579.003 97.992C578.683 97.848 578.403 97.696 578.163 97.536C577.939 97.376 577.739 97.208 577.563 97.032V96.48L579.651 94.272C578.723 93.456 578.259 92.408 578.259 91.128C578.259 90.328 578.451 89.6 578.835 88.944C579.235 88.288 579.795 87.768 580.515 87.384C581.235 87 582.107 86.808 583.131 86.808C583.803 86.808 584.427 86.904 585.003 87.096H589.515V88.968L587.475 89.112C587.795 89.72 587.955 90.392 587.955 91.128C587.955 91.928 587.763 92.656 587.379 93.312C586.995 93.968 586.435 94.488 585.699 94.872C584.979 95.256 584.123 95.448 583.131 95.448ZM583.131 93.096C583.755 93.096 584.267 92.928 584.667 92.592C585.083 92.256 585.291 91.776 585.291 91.152C585.291 90.528 585.083 90.048 584.667 89.712C584.267 89.376 583.755 89.208 583.131 89.208C582.475 89.208 581.947 89.376 581.547 89.712C581.147 90.048 580.947 90.528 580.947 91.152C580.947 91.776 581.147 92.256 581.547 92.592C581.947 92.928 582.475 93.096 583.131 93.096ZM580.251 100.464C580.251 101.056 580.523 101.496 581.067 101.784C581.627 102.088 582.307 102.24 583.107 102.24C583.875 102.24 584.499 102.08 584.979 101.76C585.459 101.456 585.699 101.04 585.699 100.512C585.699 100.08 585.539 99.72 585.219 99.432C584.915 99.144 584.299 98.968 583.371 98.904C582.715 98.856 582.107 98.784 581.547 98.688C581.083 98.944 580.747 99.224 580.539 99.528C580.347 99.832 580.251 100.144 580.251 100.464ZM593.243 104.28L596.003 98.208H595.283L590.651 87.096H593.987L597.323 95.472L600.803 87.096H604.067L596.507 104.28H593.243Z" fill="#333333"/>
<path d="M174.544 24V9.672H169.648V7.2H182.536V9.672H177.616V24H174.544ZM188.367 24.288C187.167 24.288 186.103 24.032 185.175 23.52C184.247 23.008 183.519 22.288 182.991 21.36C182.463 20.432 182.199 19.36 182.199 18.144C182.199 16.912 182.455 15.816 182.967 14.856C183.495 13.896 184.215 13.152 185.127 12.624C186.055 12.08 187.143 11.808 188.391 11.808C189.559 11.808 190.591 12.064 191.487 12.576C192.383 13.088 193.079 13.792 193.575 14.688C194.087 15.568 194.343 16.552 194.343 17.64C194.343 17.816 194.335 18 194.319 18.192C194.319 18.384 194.311 18.584 194.295 18.792H185.247C185.311 19.72 185.631 20.448 186.207 20.976C186.799 21.504 187.511 21.768 188.343 21.768C188.967 21.768 189.487 21.632 189.903 21.36C190.335 21.072 190.655 20.704 190.863 20.256H193.983C193.759 21.008 193.383 21.696 192.855 22.32C192.343 22.928 191.703 23.408 190.935 23.76C190.183 24.112 189.327 24.288 188.367 24.288ZM188.391 14.304C187.639 14.304 186.975 14.52 186.399 14.952C185.823 15.368 185.455 16.008 185.295 16.872H191.223C191.175 16.088 190.887 15.464 190.359 15C189.831 14.536 189.175 14.304 188.391 14.304ZM202.759 24.288C201.543 24.288 200.471 24.024 199.543 23.496C198.615 22.968 197.879 22.232 197.335 21.288C196.807 20.344 196.543 19.264 196.543 18.048C196.543 16.832 196.807 15.752 197.335 14.808C197.879 13.864 198.615 13.128 199.543 12.6C200.471 12.072 201.543 11.808 202.759 11.808C204.279 11.808 205.559 12.208 206.599 13.008C207.639 13.792 208.303 14.88 208.591 16.272H205.351C205.191 15.696 204.871 15.248 204.391 14.928C203.927 14.592 203.375 14.424 202.735 14.424C201.887 14.424 201.167 14.744 200.575 15.384C199.983 16.024 199.687 16.912 199.687 18.048C199.687 19.184 199.983 20.072 200.575 20.712C201.167 21.352 201.887 21.672 202.735 21.672C203.375 21.672 203.927 21.512 204.391 21.192C204.871 20.872 205.191 20.416 205.351 19.824H208.591C208.303 21.168 207.639 22.248 206.599 23.064C205.559 23.88 204.279 24.288 202.759 24.288ZM211.318 24V6.72H214.39V13.92C214.79 13.264 215.326 12.752 215.998 12.384C216.686 12 217.47 11.808 218.35 11.808C219.822 11.808 220.958 12.272 221.758 13.2C222.574 14.128 222.982 15.488 222.982 17.28V24H219.934V17.568C219.934 16.544 219.726 15.76 219.31 15.216C218.91 14.672 218.27 14.4 217.39 14.4C216.526 14.4 215.806 14.704 215.23 15.312C214.67 15.92 214.39 16.768 214.39 17.856V24H211.318ZM225.919 24V12.096H228.631L228.871 14.112C229.239 13.408 229.767 12.848 230.455 12.432C231.159 12.016 231.983 11.808 232.927 11.808C234.399 11.808 235.543 12.272 236.359 13.2C237.175 14.128 237.583 15.488 237.583 17.28V24H234.511V17.568C234.511 16.544 234.303 15.76 233.887 15.216C233.471 14.672 232.823 14.4 231.943 14.4C231.079 14.4 230.367 14.704 229.807 15.312C229.263 15.92 228.991 16.768 228.991 17.856V24H225.919ZM246.233 24.288C245.081 24.288 244.041 24.024 243.113 23.496C242.201 22.968 241.473 22.24 240.929 21.312C240.401 20.368 240.137 19.28 240.137 18.048C240.137 16.816 240.409 15.736 240.953 14.808C241.497 13.864 242.225 13.128 243.137 12.6C244.065 12.072 245.105 11.808 246.257 11.808C247.393 11.808 248.417 12.072 249.329 12.6C250.257 13.128 250.985 13.864 251.513 14.808C252.057 15.736 252.329 16.816 252.329 18.048C252.329 19.28 252.057 20.368 251.513 21.312C250.985 22.24 250.257 22.968 249.329 23.496C248.401 24.024 247.369 24.288 246.233 24.288ZM246.233 21.624C247.033 21.624 247.729 21.328 248.321 20.736C248.913 20.128 249.209 19.232 249.209 18.048C249.209 16.864 248.913 15.976 248.321 15.384C247.729 14.776 247.041 14.472 246.257 14.472C245.441 14.472 244.737 14.776 244.145 15.384C243.569 15.976 243.281 16.864 243.281 18.048C243.281 19.232 243.569 20.128 244.145 20.736C244.737 21.328 245.433 21.624 246.233 21.624ZM255.076 24V6.72H258.148V24H255.076ZM266.999 24.288C265.847 24.288 264.807 24.024 263.879 23.496C262.967 22.968 262.239 22.24 261.695 21.312C261.167 20.368 260.903 19.28 260.903 18.048C260.903 16.816 261.175 15.736 261.719 14.808C262.263 13.864 262.991 13.128 263.903 12.6C264.831 12.072 265.871 11.808 267.023 11.808C268.159 11.808 269.183 12.072 270.095 12.6C271.023 13.128 271.751 13.864 272.279 14.808C272.823 15.736 273.095 16.816 273.095 18.048C273.095 19.28 272.823 20.368 272.279 21.312C271.751 22.24 271.023 22.968 270.095 23.496C269.167 24.024 268.135 24.288 266.999 24.288ZM266.999 21.624C267.799 21.624 268.495 21.328 269.087 20.736C269.679 20.128 269.975 19.232 269.975 18.048C269.975 16.864 269.679 15.976 269.087 15.384C268.495 14.776 267.807 14.472 267.023 14.472C266.207 14.472 265.503 14.776 264.911 15.384C264.335 15.976 264.047 16.864 264.047 18.048C264.047 19.232 264.335 20.128 264.911 20.736C265.503 21.328 266.199 21.624 266.999 21.624ZM280.131 20.448C279.555 20.448 279.019 20.384 278.523 20.256L277.635 21.144C277.907 21.288 278.275 21.408 278.739 21.504C279.203 21.6 279.955 21.696 280.995 21.792C282.579 21.936 283.731 22.312 284.451 22.92C285.171 23.528 285.531 24.368 285.531 25.44C285.531 26.144 285.339 26.808 284.955 27.432C284.571 28.072 283.979 28.584 283.179 28.968C282.379 29.368 281.355 29.568 280.107 29.568C278.411 29.568 277.043 29.248 276.003 28.608C274.963 27.984 274.443 27.04 274.443 25.776C274.443 24.704 274.963 23.776 276.003 22.992C275.683 22.848 275.403 22.696 275.163 22.536C274.939 22.376 274.739 22.208 274.563 22.032V21.48L276.651 19.272C275.723 18.456 275.259 17.408 275.259 16.128C275.259 15.328 275.451 14.6 275.835 13.944C276.235 13.288 276.795 12.768 277.515 12.384C278.235 12 279.107 11.808 280.131 11.808C280.803 11.808 281.427 11.904 282.003 12.096H286.515V13.968L284.475 14.112C284.795 14.72 284.955 15.392 284.955 16.128C284.955 16.928 284.763 17.656 284.379 18.312C283.995 18.968 283.435 19.488 282.699 19.872C281.979 20.256 281.123 20.448 280.131 20.448ZM280.131 18.096C280.755 18.096 281.267 17.928 281.667 17.592C282.083 17.256 282.291 16.776 282.291 16.152C282.291 15.528 282.083 15.048 281.667 14.712C281.267 14.376 280.755 14.208 280.131 14.208C279.475 14.208 278.947 14.376 278.547 14.712C278.147 15.048 277.947 15.528 277.947 16.152C277.947 16.776 278.147 17.256 278.547 17.592C278.947 17.928 279.475 18.096 280.131 18.096ZM277.251 25.464C277.251 26.056 277.523 26.496 278.067 26.784C278.627 27.088 279.307 27.24 280.107 27.24C280.875 27.24 281.499 27.08 281.979 26.76C282.459 26.456 282.699 26.04 282.699 25.512C282.699 25.08 282.539 24.72 282.219 24.432C281.915 24.144 281.299 23.968 280.371 23.904C279.715 23.856 279.107 23.784 278.547 23.688C278.083 23.944 277.747 24.224 277.539 24.528C277.347 24.832 277.251 25.144 277.251 25.464ZM290.243 29.28L293.003 23.208H292.283L287.651 12.096H290.987L294.323 20.472L297.803 12.096H301.067L293.507 29.28H290.243ZM346.812 24V7.2H349.884V14.184H357.42V7.2H360.492V24H357.42V16.68H349.884V24H346.812ZM368.149 24.288C366.661 24.288 365.509 23.824 364.693 22.896C363.893 21.968 363.493 20.608 363.493 18.816V12.096H366.541V18.528C366.541 19.552 366.749 20.336 367.165 20.88C367.581 21.424 368.237 21.696 369.133 21.696C369.981 21.696 370.677 21.392 371.221 20.784C371.781 20.176 372.061 19.328 372.061 18.24V12.096H375.133V24H372.421L372.181 21.984C371.813 22.688 371.277 23.248 370.573 23.664C369.885 24.08 369.077 24.288 368.149 24.288ZM378.287 24V12.096H380.999L381.263 13.704C381.647 13.128 382.151 12.672 382.775 12.336C383.415 11.984 384.151 11.808 384.983 11.808C386.823 11.808 388.127 12.52 388.895 13.944C389.327 13.288 389.903 12.768 390.623 12.384C391.359 12 392.159 11.808 393.023 11.808C394.575 11.808 395.767 12.272 396.599 13.2C397.431 14.128 397.847 15.488 397.847 17.28V24H394.775V17.568C394.775 16.544 394.575 15.76 394.175 15.216C393.791 14.672 393.191 14.4 392.375 14.4C391.543 14.4 390.871 14.704 390.359 15.312C389.863 15.92 389.615 16.768 389.615 17.856V24H386.543V17.568C386.543 16.544 386.343 15.76 385.943 15.216C385.543 14.672 384.927 14.4 384.095 14.4C383.279 14.4 382.615 14.704 382.103 15.312C381.607 15.92 381.359 16.768 381.359 17.856V24H378.287ZM404.867 24.288C403.843 24.288 403.003 24.128 402.347 23.808C401.691 23.472 401.203 23.032 400.883 22.488C400.563 21.944 400.403 21.344 400.403 20.688C400.403 19.584 400.835 18.688 401.699 18C402.563 17.312 403.859 16.968 405.587 16.968H408.611V16.68C408.611 15.864 408.379 15.264 407.915 14.88C407.451 14.496 406.875 14.304 406.187 14.304C405.563 14.304 405.019 14.456 404.555 14.76C404.091 15.048 403.803 15.48 403.691 16.056H400.691C400.771 15.192 401.059 14.44 401.555 13.8C402.067 13.16 402.723 12.672 403.523 12.336C404.323 11.984 405.219 11.808 406.211 11.808C407.907 11.808 409.243 12.232 410.219 13.08C411.195 13.928 411.683 15.128 411.683 16.68V24H409.067L408.779 22.08C408.427 22.72 407.931 23.248 407.291 23.664C406.667 24.08 405.859 24.288 404.867 24.288ZM405.563 21.888C406.443 21.888 407.123 21.6 407.603 21.024C408.099 20.448 408.411 19.736 408.539 18.888H405.923C405.107 18.888 404.523 19.04 404.171 19.344C403.819 19.632 403.643 19.992 403.643 20.424C403.643 20.888 403.819 21.248 404.171 21.504C404.523 21.76 404.987 21.888 405.563 21.888ZM414.615 24V12.096H417.327L417.567 14.112C417.935 13.408 418.463 12.848 419.151 12.432C419.855 12.016 420.679 11.808 421.623 11.808C423.095 11.808 424.239 12.272 425.055 13.2C425.871 14.128 426.279 15.488 426.279 17.28V24H423.207V17.568C423.207 16.544 422.999 15.76 422.583 15.216C422.167 14.672 421.519 14.4 420.639 14.4C419.775 14.4 419.063 14.704 418.503 15.312C417.959 15.92 417.687 16.768 417.687 17.856V24H414.615ZM430.872 10.248C430.312 10.248 429.848 10.08 429.48 9.744C429.128 9.408 428.952 8.984 428.952 8.472C428.952 7.96 429.128 7.544 429.48 7.224C429.848 6.888 430.312 6.72 430.872 6.72C431.432 6.72 431.888 6.888 432.24 7.224C432.608 7.544 432.792 7.96 432.792 8.472C432.792 8.984 432.608 9.408 432.24 9.744C431.888 10.08 431.432 10.248 430.872 10.248ZM429.336 24V12.096H432.408V24H429.336ZM440.919 24C439.671 24 438.671 23.696 437.919 23.088C437.167 22.48 436.791 21.4 436.791 19.848V14.664H434.751V12.096H436.791L437.151 8.904H439.863V12.096H443.079V14.664H439.863V19.872C439.863 20.448 439.983 20.848 440.223 21.072C440.479 21.28 440.911 21.384 441.519 21.384H443.007V24H440.919ZM447.204 29.28L449.964 23.208H449.244L444.612 12.096H447.948L451.284 20.472L454.764 12.096H458.028L450.468 29.28H447.204Z" fill="#E4002B"/>
<path d="M309.346 24V14.664H307.714V12.096H309.346V10.704C309.346 9.264 309.706 8.24 310.426 7.632C311.162 7.024 312.154 6.72 313.402 6.72H314.722V9.336H313.882C313.354 9.336 312.978 9.44 312.754 9.648C312.53 9.856 312.418 10.208 312.418 10.704V12.096H314.986V14.664H312.418V24H309.346ZM322.663 24.288C321.511 24.288 320.471 24.024 319.543 23.496C318.631 22.968 317.903 22.24 317.359 21.312C316.831 20.368 316.567 19.28 316.567 18.048C316.567 16.816 316.839 15.736 317.383 14.808C317.927 13.864 318.655 13.128 319.567 12.6C320.495 12.072 321.535 11.808 322.687 11.808C323.823 11.808 324.847 12.072 325.759 12.6C326.687 13.128 327.415 13.864 327.943 14.808C328.487 15.736 328.759 16.816 328.759 18.048C328.759 19.28 328.487 20.368 327.943 21.312C327.415 22.24 326.687 22.968 325.759 23.496C324.831 24.024 323.799 24.288 322.663 24.288ZM322.663 21.624C323.463 21.624 324.159 21.328 324.751 20.736C325.343 20.128 325.639 19.232 325.639 18.048C325.639 16.864 325.343 15.976 324.751 15.384C324.159 14.776 323.471 14.472 322.687 14.472C321.871 14.472 321.167 14.776 320.575 15.384C319.999 15.976 319.711 16.864 319.711 18.048C319.711 19.232 319.999 20.128 320.575 20.736C321.167 21.328 321.863 21.624 322.663 21.624ZM331.505 24V12.096H334.241L334.529 14.328C334.961 13.56 335.545 12.952 336.281 12.504C337.033 12.04 337.913 11.808 338.921 11.808V15.048H338.057C337.385 15.048 336.785 15.152 336.257 15.36C335.729 15.568 335.313 15.928 335.009 16.44C334.721 16.952 334.577 17.664 334.577 18.576V24H331.505Z" fill="#333333"/>
<path d="M212 91.5L212.727 90.8131L212.431 90.5H212V91.5ZM170.167 91.5C170.167 94.4455 172.554 96.8333 175.5 96.8333C178.446 96.8333 180.833 94.4455 180.833 91.5C180.833 88.5545 178.446 86.1667 175.5 86.1667C172.554 86.1667 170.167 88.5545 170.167 91.5ZM175.5 92.5H178.542V90.5H175.5V92.5ZM184.625 92.5H190.708V90.5H184.625V92.5ZM196.792 92.5H202.875V90.5H196.792V92.5ZM208.958 92.5H212V90.5H208.958V92.5ZM211.273 92.1869L213.43 94.4682L214.883 93.0943L212.727 90.8131L211.273 92.1869ZM217.742 99.0307L222.055 103.593L223.508 102.219L219.195 97.6568L217.742 99.0307ZM226.367 108.156L230.68 112.718L232.133 111.344L227.82 106.782L226.367 108.156ZM234.992 117.281L239.305 121.843L240.758 120.469L236.445 115.907L234.992 117.281ZM243.617 126.406L245.773 128.687L247.227 127.313L245.07 125.032L243.617 126.406Z" fill="#E4002B"/>
<path d="M308.667 52.5C308.667 55.4455 311.054 57.8333 314 57.8333C316.946 57.8333 319.333 55.4455 319.333 52.5C319.333 49.5545 316.946 47.1667 314 47.1667C311.054 47.1667 308.667 49.5545 308.667 52.5ZM313 52.5V55.4583H315V52.5H313ZM313 61.375V67.2917H315V61.375H313ZM313 73.2083V79.125H315V73.2083H313ZM313 85.0417V90.9583H315V85.0417H313ZM313 96.875V102.792H315V96.875H313ZM313 108.708V114.625H315V108.708H313ZM313 120.542V126.458H315V120.542H313ZM313 132.375V138.292H315V132.375H313ZM313 144.208V150.125H315V144.208H313ZM313 156.042V159H315V156.042H313Z" fill="#E4002B"/>
<path d="M420 92L419.273 91.3131L419.569 91H420V92ZM461.833 92C461.833 94.9455 459.446 97.3333 456.5 97.3333C453.554 97.3333 451.167 94.9455 451.167 92C451.167 89.0545 453.554 86.6667 456.5 86.6667C459.446 86.6667 461.833 89.0545 461.833 92ZM456.5 93H453.458V91H456.5V93ZM447.375 93H441.292V91H447.375V93ZM435.208 93H429.125V91H435.208V93ZM423.042 93H420V91H423.042V93ZM420.727 92.6869L418.57 94.9682L417.117 93.5943L419.273 91.3131L420.727 92.6869ZM414.258 99.5307L409.945 104.093L408.492 102.719L412.805 98.1568L414.258 99.5307ZM405.633 108.656L401.32 113.218L399.867 111.844L404.18 107.282L405.633 108.656ZM397.008 117.781L392.695 122.343L391.242 120.969L395.555 116.407L397.008 117.781ZM388.383 126.906L386.227 129.187L384.773 127.813L386.93 125.532L388.383 126.906Z" fill="#E4002B"/>
<defs>
<clipPath id="clip0_2686_1173">
<rect width="513" height="168" fill="white" transform="translate(59 137)"/>
</clipPath>
</defs>
</svg>
